<svg width="18" height="18" viewBox="0 0 18 18" fill="none" xmlns="http://www.w3.org/2000/svg">
    <g id="Frame">
        <g id="Group 1199">
            <path id="Vector"
                  d="M14.2 6.59998H3.8C3.35817 6.59998 3 6.95815 3 7.39998V15.4C3 15.8418 3.35817 16.2 3.8 16.2H14.2C14.6418 16.2 15 15.8418 15 15.4V7.39998C15 6.95815 14.6418 6.59998 14.2 6.59998Z"
                  stroke="currentColor" stroke-width="1.3"/>
            <path id="Vector_2"
                  d="M6.1999 10.6C6.64173 10.6 6.9999 10.2418 6.9999 9.8C6.9999 9.35817 6.64173 9 6.1999 9C5.75807 9 5.3999 9.35817 5.3999 9.8C5.3999 10.2418 5.75807 10.6 6.1999 10.6Z"
                  fill="currentColor"/>
            <path id="Vector_3"
                  d="M11.8 10.6C12.2418 10.6 12.6 10.2418 12.6 9.8C12.6 9.35817 12.2418 9 11.8 9C11.3582 9 11 9.35817 11 9.8C11 10.2418 11.3582 10.6 11.8 10.6Z"
                  fill="currentColor"/>
            <path id="Vector_4"
                  d="M7.4001 12.2C6.95826 12.2 6.6001 12.5581 6.6001 13C6.6001 13.4418 6.95826 13.8 7.4001 13.8V12.2ZM10.6001 13.8C11.0419 13.8 11.4001 13.4418 11.4001 13C11.4001 12.5581 11.0419 12.2 10.6001 12.2V13.8ZM7.4001 13.8H10.6001V12.2H7.4001V13.8Z"
                  fill="currentColor"/>
            <path id="Vector_5" d="M9 4V6.59996" stroke="currentColor" stroke-width="1.3" stroke-linecap="round"
                  stroke-linejoin="round"/>
            <path id="Vector_6" d="M1 9.79999V13" stroke="currentColor" stroke-width="1.3" stroke-linecap="round"
                  stroke-linejoin="round"/>
            <path id="Vector_7" d="M17 9.79999V13" stroke="currentColor" stroke-width="1.3" stroke-linecap="round"
                  stroke-linejoin="round"/>
            <path id="Vector_8"
                  d="M9 4C8.44772 4 8 3.55228 8 3C8 2.44772 8.44772 2 9 2C9.55228 2 10 2.44772 10 3C10 3.55228 9.55228 4 9 4Z"
                  stroke="currentColor" stroke-width="1.3"/>
        </g>
    </g>
</svg>
